<mxfile host="app.diagrams.net" modified="2022-05-31T10:55:59.651Z" agent="5.0 (Macintosh; Intel Mac OS X 10_15_7) AppleWebKit/537.36 (KHTML, like Gecko) Chrome/101.0.4951.64 Safari/537.36" etag="DFlvmkRfQ8_rvRQgm1FD" version="18.1.3" type="github">
  <diagram id="geAXJrzLW3RNIz8qGXxT" name="Page-1">
    <mxGraphModel dx="2893" dy="2213" grid="1" gridSize="10" guides="1" tooltips="1" connect="1" arrows="1" fold="1" page="1" pageScale="1" pageWidth="827" pageHeight="1169" math="0" shadow="0">
      <root>
        <mxCell id="0" />
        <mxCell id="1" parent="0" />
        <mxCell id="FhAw7WQIUkOoqfe2i8Zt-42" value="" style="rounded=0;whiteSpace=wrap;html=1;fillColor=none;dashed=1;" vertex="1" parent="1">
          <mxGeometry x="120" y="-310" width="510" height="230" as="geometry" />
        </mxCell>
        <mxCell id="FhAw7WQIUkOoqfe2i8Zt-31" value="" style="rounded=0;whiteSpace=wrap;html=1;fillColor=none;dashed=1;" vertex="1" parent="1">
          <mxGeometry x="120" y="-65" width="510" height="560" as="geometry" />
        </mxCell>
        <mxCell id="FhAw7WQIUkOoqfe2i8Zt-1" value="小游戏SDK(Android)" style="rounded=1;whiteSpace=wrap;html=1;fillColor=#dae8fc;strokeColor=#6c8ebf;" vertex="1" parent="1">
          <mxGeometry x="140" y="420" width="210" height="50" as="geometry" />
        </mxCell>
        <mxCell id="FhAw7WQIUkOoqfe2i8Zt-2" value="小游戏SDK(iOS)" style="rounded=1;whiteSpace=wrap;html=1;fillColor=#dae8fc;strokeColor=#6c8ebf;" vertex="1" parent="1">
          <mxGeometry x="390" y="420" width="210" height="50" as="geometry" />
        </mxCell>
        <mxCell id="FhAw7WQIUkOoqfe2i8Zt-3" value="鹅盒 ReactNative 基础框架" style="rounded=1;whiteSpace=wrap;html=1;fillColor=#d5e8d4;strokeColor=#82b366;" vertex="1" parent="1">
          <mxGeometry x="140" y="360" width="460" height="50" as="geometry" />
        </mxCell>
        <mxCell id="FhAw7WQIUkOoqfe2i8Zt-4" value="" style="rounded=1;whiteSpace=wrap;html=1;arcSize=5;fillColor=#f5f5f5;fontColor=#333333;strokeColor=#666666;" vertex="1" parent="1">
          <mxGeometry x="140" y="150" width="140" height="200" as="geometry" />
        </mxCell>
        <mxCell id="FhAw7WQIUkOoqfe2i8Zt-5" value="UI组件" style="text;html=1;strokeColor=none;fillColor=none;align=center;verticalAlign=middle;whiteSpace=wrap;rounded=0;" vertex="1" parent="1">
          <mxGeometry x="180" y="150" width="60" height="30" as="geometry" />
        </mxCell>
        <mxCell id="FhAw7WQIUkOoqfe2i8Zt-11" value="" style="group;fillColor=#f5f5f5;fontColor=#333333;strokeColor=#666666;container=0;" vertex="1" connectable="0" parent="1">
          <mxGeometry x="150" y="190" width="120" height="150" as="geometry" />
        </mxCell>
        <mxCell id="FhAw7WQIUkOoqfe2i8Zt-13" value="Android/iOS Bridge" style="rounded=1;whiteSpace=wrap;html=1;fillColor=#f5f5f5;fontColor=#333333;strokeColor=#666666;" vertex="1" parent="1">
          <mxGeometry x="294" y="290" width="306" height="60" as="geometry" />
        </mxCell>
        <mxCell id="FhAw7WQIUkOoqfe2i8Zt-14" value="" style="rounded=1;whiteSpace=wrap;html=1;arcSize=5;fillColor=#f5f5f5;fontColor=#333333;strokeColor=#666666;" vertex="1" parent="1">
          <mxGeometry x="300" y="150" width="140" height="130" as="geometry" />
        </mxCell>
        <mxCell id="FhAw7WQIUkOoqfe2i8Zt-15" value="" style="rounded=1;whiteSpace=wrap;html=1;arcSize=5;fillColor=#f5f5f5;fontColor=#333333;strokeColor=#666666;" vertex="1" parent="1">
          <mxGeometry x="460" y="150" width="140" height="130" as="geometry" />
        </mxCell>
        <mxCell id="FhAw7WQIUkOoqfe2i8Zt-16" value="模块" style="text;html=1;strokeColor=none;fillColor=none;align=center;verticalAlign=middle;whiteSpace=wrap;rounded=0;" vertex="1" parent="1">
          <mxGeometry x="340" y="150" width="60" height="30" as="geometry" />
        </mxCell>
        <mxCell id="FhAw7WQIUkOoqfe2i8Zt-17" value="原生组件" style="text;html=1;strokeColor=none;fillColor=none;align=center;verticalAlign=middle;whiteSpace=wrap;rounded=0;" vertex="1" parent="1">
          <mxGeometry x="480" y="150" width="100" height="30" as="geometry" />
        </mxCell>
        <mxCell id="FhAw7WQIUkOoqfe2i8Zt-18" value="网络请求" style="rounded=0;whiteSpace=wrap;html=1;fillColor=#f5f5f5;fontColor=#333333;strokeColor=#666666;" vertex="1" parent="1">
          <mxGeometry x="310" y="180" width="120" height="30" as="geometry" />
        </mxCell>
        <mxCell id="FhAw7WQIUkOoqfe2i8Zt-20" value="原生基建" style="rounded=0;whiteSpace=wrap;html=1;fillColor=#f5f5f5;fontColor=#333333;strokeColor=#666666;" vertex="1" parent="1">
          <mxGeometry x="310" y="210" width="120" height="30" as="geometry" />
        </mxCell>
        <mxCell id="FhAw7WQIUkOoqfe2i8Zt-21" value="其他" style="rounded=0;whiteSpace=wrap;html=1;fillColor=#f5f5f5;fontColor=#333333;strokeColor=#666666;" vertex="1" parent="1">
          <mxGeometry x="310" y="240" width="120" height="30" as="geometry" />
        </mxCell>
        <mxCell id="FhAw7WQIUkOoqfe2i8Zt-22" value="日志组件" style="rounded=0;whiteSpace=wrap;html=1;fillColor=#f5f5f5;fontColor=#333333;strokeColor=#666666;" vertex="1" parent="1">
          <mxGeometry x="470" y="180" width="120" height="30" as="geometry" />
        </mxCell>
        <mxCell id="FhAw7WQIUkOoqfe2i8Zt-23" value="下载组件" style="rounded=0;whiteSpace=wrap;html=1;fillColor=#f5f5f5;fontColor=#333333;strokeColor=#666666;" vertex="1" parent="1">
          <mxGeometry x="470" y="210" width="120" height="30" as="geometry" />
        </mxCell>
        <mxCell id="FhAw7WQIUkOoqfe2i8Zt-24" value="其他" style="rounded=0;whiteSpace=wrap;html=1;fillColor=#f5f5f5;fontColor=#333333;strokeColor=#666666;" vertex="1" parent="1">
          <mxGeometry x="470" y="240" width="120" height="30" as="geometry" />
        </mxCell>
        <mxCell id="FhAw7WQIUkOoqfe2i8Zt-25" value="Android / iOS UI 容器" style="rounded=1;whiteSpace=wrap;html=1;fillColor=#f5f5f5;fontColor=#333333;strokeColor=#666666;" vertex="1" parent="1">
          <mxGeometry x="140" y="90" width="460" height="50" as="geometry" />
        </mxCell>
        <mxCell id="FhAw7WQIUkOoqfe2i8Zt-26" value="榜单业务" style="rounded=1;whiteSpace=wrap;html=1;arcSize=7;fillColor=#f9f7ed;strokeColor=#36393d;" vertex="1" parent="1">
          <mxGeometry x="140" y="10" width="100" height="60" as="geometry" />
        </mxCell>
        <mxCell id="FhAw7WQIUkOoqfe2i8Zt-28" value="活动业务" style="rounded=1;whiteSpace=wrap;html=1;arcSize=7;fillColor=#f9f7ed;strokeColor=#36393d;" vertex="1" parent="1">
          <mxGeometry x="260" y="10" width="100" height="60" as="geometry" />
        </mxCell>
        <mxCell id="FhAw7WQIUkOoqfe2i8Zt-29" value="兑换业务" style="rounded=1;whiteSpace=wrap;html=1;arcSize=7;fillColor=#f9f7ed;strokeColor=#36393d;" vertex="1" parent="1">
          <mxGeometry x="380" y="10" width="100" height="60" as="geometry" />
        </mxCell>
        <mxCell id="FhAw7WQIUkOoqfe2i8Zt-30" value="..." style="rounded=1;whiteSpace=wrap;html=1;arcSize=7;fillColor=#f9f7ed;strokeColor=#36393d;" vertex="1" parent="1">
          <mxGeometry x="500" y="10" width="100" height="60" as="geometry" />
        </mxCell>
        <mxCell id="FhAw7WQIUkOoqfe2i8Zt-32" value="鹅盒App" style="text;html=1;strokeColor=none;fillColor=none;align=center;verticalAlign=middle;whiteSpace=wrap;rounded=0;dashed=1;" vertex="1" parent="1">
          <mxGeometry x="140" y="-40" width="60" height="30" as="geometry" />
        </mxCell>
        <mxCell id="FhAw7WQIUkOoqfe2i8Zt-6" value="卡片组件" style="rounded=0;whiteSpace=wrap;html=1;fillColor=#f5f5f5;fontColor=#333333;strokeColor=#666666;" vertex="1" parent="1">
          <mxGeometry x="150" y="180" width="120" height="30" as="geometry" />
        </mxCell>
        <mxCell id="FhAw7WQIUkOoqfe2i8Zt-8" value="Banner组件" style="rounded=0;whiteSpace=wrap;html=1;fillColor=#f5f5f5;fontColor=#333333;strokeColor=#666666;" vertex="1" parent="1">
          <mxGeometry x="150" y="220" width="120" height="30" as="geometry" />
        </mxCell>
        <mxCell id="FhAw7WQIUkOoqfe2i8Zt-9" value="..." style="rounded=0;whiteSpace=wrap;html=1;fillColor=#f5f5f5;fontColor=#333333;strokeColor=#666666;" vertex="1" parent="1">
          <mxGeometry x="150" y="260" width="120" height="30" as="geometry" />
        </mxCell>
        <mxCell id="FhAw7WQIUkOoqfe2i8Zt-10" value="抽奖组件" style="rounded=0;whiteSpace=wrap;html=1;fillColor=#f5f5f5;fontColor=#333333;strokeColor=#666666;" vertex="1" parent="1">
          <mxGeometry x="150" y="300" width="120" height="30" as="geometry" />
        </mxCell>
        <mxCell id="FhAw7WQIUkOoqfe2i8Zt-33" value="研发支撑" style="rounded=0;whiteSpace=wrap;html=1;fillColor=#f5f5f5;fontColor=#333333;strokeColor=#666666;" vertex="1" parent="1">
          <mxGeometry x="-110" y="-310" width="160" height="380" as="geometry" />
        </mxCell>
        <mxCell id="FhAw7WQIUkOoqfe2i8Zt-35" value="测试支撑" style="rounded=0;whiteSpace=wrap;html=1;fillColor=#f5f5f5;fontColor=#333333;strokeColor=#666666;" vertex="1" parent="1">
          <mxGeometry x="-110" y="140" width="160" height="355" as="geometry" />
        </mxCell>
        <mxCell id="FhAw7WQIUkOoqfe2i8Zt-36" value="数据服务" style="rounded=0;whiteSpace=wrap;html=1;fillColor=#f5f5f5;fontColor=#333333;strokeColor=#666666;" vertex="1" parent="1">
          <mxGeometry x="700" y="-310" width="160" height="400" as="geometry" />
        </mxCell>
        <mxCell id="FhAw7WQIUkOoqfe2i8Zt-37" value="运维服务" style="rounded=0;whiteSpace=wrap;html=1;fillColor=#f5f5f5;fontColor=#333333;strokeColor=#666666;" vertex="1" parent="1">
          <mxGeometry x="700" y="140" width="160" height="355" as="geometry" />
        </mxCell>
        <mxCell id="FhAw7WQIUkOoqfe2i8Zt-38" value="鹅盒后台" style="rounded=1;whiteSpace=wrap;html=1;fillColor=#b1ddf0;arcSize=6;strokeColor=#10739e;" vertex="1" parent="1">
          <mxGeometry x="130" y="-160" width="490" height="70" as="geometry" />
        </mxCell>
        <mxCell id="FhAw7WQIUkOoqfe2i8Zt-39" value="微信小游戏&lt;br&gt;后台服务" style="rounded=1;whiteSpace=wrap;html=1;fillColor=default;" vertex="1" parent="1">
          <mxGeometry x="130" y="-240" width="120" height="60" as="geometry" />
        </mxCell>
        <mxCell id="FhAw7WQIUkOoqfe2i8Zt-40" value="广告&lt;br&gt;后台服务" style="rounded=1;whiteSpace=wrap;html=1;fillColor=default;" vertex="1" parent="1">
          <mxGeometry x="320" y="-240" width="120" height="60" as="geometry" />
        </mxCell>
        <mxCell id="FhAw7WQIUkOoqfe2i8Zt-41" value="其他&lt;br&gt;后台服务" style="rounded=1;whiteSpace=wrap;html=1;fillColor=default;" vertex="1" parent="1">
          <mxGeometry x="490" y="-240" width="120" height="60" as="geometry" />
        </mxCell>
        <mxCell id="FhAw7WQIUkOoqfe2i8Zt-43" value="后台服务" style="text;html=1;strokeColor=none;fillColor=none;align=center;verticalAlign=middle;whiteSpace=wrap;rounded=0;dashed=1;" vertex="1" parent="1">
          <mxGeometry x="130" y="-300" width="60" height="30" as="geometry" />
        </mxCell>
      </root>
    </mxGraphModel>
  </diagram>
</mxfile>
